<?xml version="1.0" encoding="UTF-8"?>
<svg xmlns="http://www.w3.org/2000/svg" xmlns:xlink="http://www.w3.org/1999/xlink" width="188pt" height="128pt" viewBox="0 0 188 128" version="1.1">
<g id="surface1">
<path style=" stroke:none;fill-rule:nonzero;fill:rgb(78.823529%,78.823529%,78.823529%);fill-opacity:1;" d="M 185.171875 19.03125 C 185.234375 16.664062 194.25 7.929688 134.609375 12.65625 C 103.710938 7.414062 41.964844 16.117188 23.0625 12.046875 C 17.652344 9.390625 -0.96875 9.492188 2.824219 26.605469 C 0.71875 41.445312 3.796875 53.65625 2.941406 86.210938 C 6.953125 102.746094 -0.96875 105.214844 3.945312 115.730469 C 13.835938 116.664062 23.355469 114.984375 33.253906 115.816406 C 43.148438 116.652344 115.507812 120.800781 155.882812 116.207031 C 185.765625 121.320312 181.671875 115.441406 184.960938 108.132812 C 188 86.507812 181.152344 84.953125 185.171875 19.03125 Z M 185.171875 19.03125 "/>
<path style=" stroke:none;fill-rule:nonzero;fill:rgb(11.764706%,11.764706%,11.764706%);fill-opacity:1;" d="M 63.976562 11.1875 C 63.199219 22.488281 63.394531 64.398438 63.410156 73.933594 C 63.410156 86.132812 63.792969 114.953125 63.824219 116.464844 C 63.824219 116.820312 64.113281 117.109375 64.464844 117.109375 C 64.820312 117.109375 65.109375 116.820312 65.109375 116.464844 C 64.605469 94.042969 65.453125 23.808594 64.953125 11.203125 C 64.953125 10.925781 64.726562 10.703125 64.453125 10.703125 C 64.175781 10.703125 63.949219 10.925781 63.949219 11.203125 Z M 63.976562 11.1875 "/>
<path style=" stroke:none;fill-rule:nonzero;fill:rgb(11.764706%,11.764706%,11.764706%);fill-opacity:1;" d="M 183.175781 63.121094 C 156.554688 62.359375 9.980469 63.789062 4.332031 63.84375 C 4.003906 63.875 3.757812 64.148438 3.757812 64.472656 C 3.757812 64.800781 4.003906 65.074219 4.332031 65.105469 C 20.375 64.949219 113.035156 64.214844 143.339844 64.136719 C 156.621094 64.09375 169.910156 64.195312 183.175781 64.085938 C 183.390625 64.023438 183.539062 63.828125 183.539062 63.601562 C 183.539062 63.378906 183.390625 63.183594 183.175781 63.121094 Z M 183.175781 63.121094 "/>
<path style=" stroke:none;fill-rule:nonzero;fill:rgb(11.764706%,11.764706%,11.764706%);fill-opacity:1;" d="M 185.328125 107.03125 C 185.363281 104.347656 185.167969 23.796875 185.164062 20.628906 C 185.164062 17.226562 186.242188 11.851562 181.722656 11.195312 C 176.359375 10.414062 170.695312 10.691406 165.273438 10.691406 C 156.640625 10.691406 14.875 10.71875 13.144531 10.742188 C 9.917969 10.792969 4.8125 10.304688 4.011719 14.460938 C 4.003906 14.503906 4.003906 14.550781 4.011719 14.59375 C 3.460938 20.691406 3.898438 27.039062 3.871094 33.164062 C 3.808594 45.636719 3.578125 105.828125 3.585938 107.730469 C 3.585938 109.96875 3.25 112.8125 4.257812 114.890625 C 4.757812 115.894531 5.390625 116.152344 6.445312 116.394531 C 9.050781 116.992188 11.714844 117.292969 14.386719 117.28125 C 28.484375 117.4375 159.96875 117.050781 173.867188 116.710938 C 177.15625 116.628906 183.777344 117.667969 184.921875 113.433594 C 185.457031 111.484375 185.296875 109.085938 185.328125 107.03125 Z M 184.199219 107.535156 C 184.09375 111.046875 184.230469 115.03125 179.742188 115.410156 C 176.894531 115.65625 168.359375 115.652344 166.984375 115.65625 L 15.757812 116.160156 C 12.976562 116.1875 10.195312 115.949219 7.460938 115.449219 C 4.675781 114.949219 4.746094 112.554688 4.691406 110.160156 L 4.691406 107.203125 C 4.652344 100 4.628906 41.492188 4.691406 19.445312 C 4.691406 17.871094 4.597656 16.238281 4.726562 14.664062 C 5.660156 10.144531 14.5 11.652344 17.90625 11.675781 L 171.226562 11.75 C 174.1875 11.75 181.691406 12.105469 182.308594 12.351562 C 184.269531 13.132812 184.214844 15.582031 184.164062 17.328125 C 184.164062 18.082031 184.535156 87.664062 184.195312 107.117188 C 184.195312 107.265625 184.203125 107.417969 184.199219 107.550781 Z M 184.199219 107.535156 "/>
<path style=" stroke:none;fill-rule:nonzero;fill:rgb(100%,85.882353%,0%);fill-opacity:1;" d="M 123.652344 12.140625 C 123.152344 18.035156 123.507812 24.070312 123.511719 29.988281 C 123.511719 35.332031 123.066406 112.308594 123.074219 113.683594 C 123.074219 114.050781 123.128906 115.460938 123.132812 115.191406 C 123.132812 116.570312 125.25 116.570312 125.269531 115.191406 C 125.320312 114.800781 125.355469 114.410156 125.367188 114.015625 C 125.417969 112.90625 125.605469 38.132812 125.578125 32.292969 C 125.542969 25.613281 125.914062 18.785156 125.28125 12.136719 C 125.25 11.710938 124.894531 11.382812 124.46875 11.382812 C 124.042969 11.382812 123.6875 11.710938 123.652344 12.136719 Z M 123.652344 12.140625 "/>
</g>
</svg>
