<?xml version="1.0" encoding="UTF-8"?>
<svg xmlns="http://www.w3.org/2000/svg" xmlns:xlink="http://www.w3.org/1999/xlink" width="188pt" height="128pt" viewBox="0 0 188 128" version="1.1">
<g id="surface1">
<path style=" stroke:none;fill-rule:nonzero;fill:rgb(78.823529%,78.823529%,78.823529%);fill-opacity:1;" d="M 185.171875 19.378906 C 185.234375 17.015625 194.25 8.289062 134.609375 13.003906 C 103.710938 7.765625 41.964844 16.46875 23.0625 12.398438 C 17.640625 9.742188 -0.976562 9.84375 2.8125 26.957031 C 0.707031 41.796875 3.785156 54.007812 2.933594 86.5625 C 6.945312 103.097656 -0.976562 105.566406 3.933594 116.082031 C 13.828125 117.015625 23.347656 115.335938 33.242188 116.167969 C 43.140625 117.003906 115.496094 121.152344 155.875 116.566406 C 185.753906 121.671875 181.664062 115.792969 184.953125 108.484375 C 188 86.839844 181.152344 85.304688 185.171875 19.378906 Z M 185.171875 19.378906 "/>
<path style=" stroke:none;fill-rule:nonzero;fill:rgb(100%,85.882353%,0%);fill-opacity:1;" d="M 125.878906 53.84375 C 120.316406 24.792969 133.675781 9.425781 120.363281 10.855469 C 108.917969 16.882812 78.871094 11.777344 70.382812 11.816406 C 66.871094 11.816406 58.238281 15.144531 64.199219 25.417969 C 66.605469 49.816406 57.449219 64.136719 65.644531 65.199219 C 75.230469 65.371094 113.097656 65.585938 115.382812 65.625 C 125.941406 66.660156 126.78125 57.4375 125.878906 53.84375 Z M 125.878906 53.84375 "/>
<path style=" stroke:none;fill-rule:nonzero;fill:rgb(11.764706%,11.764706%,11.764706%);fill-opacity:1;" d="M 63.976562 11.546875 C 63.199219 22.84375 63.394531 64.753906 63.410156 74.289062 C 63.410156 86.488281 63.792969 115.308594 63.824219 116.820312 C 63.824219 117.175781 64.113281 117.464844 64.464844 117.464844 C 64.820312 117.464844 65.109375 117.175781 65.109375 116.820312 C 64.605469 94.398438 65.453125 24.164062 64.953125 11.558594 C 64.953125 11.28125 64.726562 11.058594 64.453125 11.058594 C 64.175781 11.058594 63.949219 11.28125 63.949219 11.558594 Z M 63.976562 11.546875 "/>
<path style=" stroke:none;fill-rule:nonzero;fill:rgb(11.764706%,11.764706%,11.764706%);fill-opacity:1;" d="M 183.175781 63.472656 C 156.554688 62.710938 9.980469 64.140625 4.332031 64.195312 C 3.984375 64.195312 3.699219 64.480469 3.699219 64.828125 C 3.699219 65.175781 3.984375 65.460938 4.332031 65.460938 C 20.375 65.300781 113.035156 64.566406 143.339844 64.488281 C 156.621094 64.453125 169.910156 64.546875 183.175781 64.441406 C 183.394531 64.382812 183.546875 64.183594 183.546875 63.957031 C 183.546875 63.730469 183.394531 63.53125 183.175781 63.472656 Z M 183.175781 63.472656 "/>
<path style=" stroke:none;fill-rule:nonzero;fill:rgb(11.764706%,11.764706%,11.764706%);fill-opacity:1;" d="M 185.328125 107.382812 C 185.363281 104.699219 185.167969 24.148438 185.164062 20.988281 C 185.164062 17.578125 186.242188 12.203125 181.722656 11.546875 C 176.359375 10.765625 170.695312 11.042969 165.273438 11.042969 C 156.640625 11.042969 14.875 11.042969 13.144531 11.09375 C 9.917969 11.144531 4.8125 10.65625 4.011719 14.8125 C 4.003906 14.855469 4.003906 14.898438 4.011719 14.945312 C 3.460938 21.046875 3.898438 27.390625 3.871094 33.515625 C 3.808594 45.988281 3.578125 106.179688 3.585938 108.085938 C 3.585938 110.320312 3.25 113.160156 4.257812 115.238281 C 4.757812 116.242188 5.390625 116.503906 6.445312 116.769531 C 9.050781 117.367188 11.714844 117.667969 14.386719 117.664062 C 28.484375 117.816406 159.96875 117.429688 173.867188 117.09375 C 177.15625 117.011719 183.777344 118.046875 184.921875 113.808594 C 185.457031 111.835938 185.296875 109.425781 185.328125 107.382812 Z M 184.199219 107.886719 C 184.09375 111.398438 184.230469 115.378906 179.742188 115.761719 C 176.894531 116.007812 168.359375 116.003906 166.984375 116.007812 L 15.757812 116.511719 C 12.976562 116.539062 10.195312 116.304688 7.460938 115.808594 C 4.675781 115.304688 4.746094 112.910156 4.691406 110.515625 L 4.691406 107.558594 C 4.636719 100.390625 4.613281 41.863281 4.6875 19.816406 C 4.6875 18.242188 4.59375 16.609375 4.722656 15.035156 C 5.65625 10.515625 14.492188 12.023438 17.902344 12.046875 L 171.21875 12.121094 C 174.183594 12.121094 181.6875 12.480469 182.304688 12.726562 C 184.265625 13.503906 184.210938 15.953125 184.160156 17.699219 C 184.160156 18.453125 184.53125 88.035156 184.191406 107.488281 C 184.195312 107.617188 184.203125 107.757812 184.199219 107.921875 Z M 184.199219 107.886719 "/>
<path style=" stroke:none;fill-rule:nonzero;fill:rgb(11.764706%,11.764706%,11.764706%);fill-opacity:1;" d="M 123.980469 12.800781 C 123.429688 24.042969 123.929688 35.421875 123.925781 46.6875 C 123.925781 56.054688 123.578125 114.453125 123.558594 115.851562 C 123.558594 116.207031 123.847656 116.496094 124.199219 116.496094 C 124.554688 116.496094 124.84375 116.207031 124.84375 115.851562 C 125.152344 94.574219 125.695312 25.289062 124.957031 12.800781 C 124.90625 12.570312 124.703125 12.410156 124.46875 12.410156 C 124.234375 12.410156 124.03125 12.570312 123.980469 12.800781 Z M 123.980469 12.800781 "/>
</g>
</svg>
