<?xml version="1.0" encoding="UTF-8"?>
<svg xmlns="http://www.w3.org/2000/svg" xmlns:xlink="http://www.w3.org/1999/xlink" width="188pt" height="128pt" viewBox="0 0 188 128" version="1.1">
<g id="surface1">
<path style=" stroke:none;fill-rule:nonzero;fill:rgb(78.823529%,78.823529%,78.823529%);fill-opacity:1;" d="M 185.171875 18.84375 C 185.234375 16.480469 194.25 7.75 134.609375 12.46875 C 103.710938 7.226562 41.964844 15.933594 23.0625 11.863281 C 17.640625 9.207031 -0.976562 9.304688 2.8125 26.417969 C 0.707031 41.261719 3.785156 53.46875 2.933594 86.03125 C 6.945312 102.566406 -0.976562 105.03125 3.933594 115.546875 C 13.828125 116.480469 23.347656 114.804688 33.242188 115.636719 C 43.140625 116.46875 115.496094 120.617188 155.875 116.027344 C 185.753906 121.136719 181.664062 115.253906 184.953125 107.945312 C 188 86.335938 181.152344 84.765625 185.171875 18.84375 Z M 185.171875 18.84375 "/>
<path style=" stroke:none;fill-rule:nonzero;fill:rgb(100%,85.882353%,0%);fill-opacity:1;" d="M 185.707031 105.035156 C 183.945312 100.417969 185.207031 69.992188 185.15625 69.394531 C 184.875 65.335938 181.992188 64.472656 178.46875 64.214844 C 172.589844 63.789062 136.859375 63.625 124.828125 64.71875 C 113.105469 65.808594 22.867188 63.035156 9.558594 64.019531 C 6.007812 64.28125 0.0351562 68.59375 3.203125 77.613281 C 2.730469 79.175781 3.003906 112.25 4.355469 115.261719 C 5.746094 118.363281 8.707031 118.035156 11.550781 117.769531 C 14.734375 117.484375 46.183594 115.316406 58.742188 115.058594 C 71.625 114.796875 138.191406 119.828125 177.921875 116.355469 C 180.480469 116.320312 186.800781 112.304688 185.707031 105.035156 Z M 185.707031 105.035156 "/>
<path style=" stroke:none;fill-rule:nonzero;fill:rgb(11.764706%,11.764706%,11.764706%);fill-opacity:1;" d="M 63.976562 11.007812 C 63.199219 22.308594 63.394531 64.214844 63.410156 73.753906 C 63.410156 85.949219 63.792969 114.773438 63.824219 116.289062 C 63.824219 116.644531 64.113281 116.933594 64.464844 116.933594 C 64.820312 116.933594 65.109375 116.644531 65.109375 116.289062 C 64.605469 93.863281 65.453125 23.628906 64.953125 11.027344 C 64.953125 10.75 64.726562 10.527344 64.453125 10.527344 C 64.175781 10.527344 63.949219 10.75 63.949219 11.027344 Z M 63.976562 11.007812 "/>
<path style=" stroke:none;fill-rule:nonzero;fill:rgb(11.764706%,11.764706%,11.764706%);fill-opacity:1;" d="M 183.175781 62.941406 C 156.554688 62.179688 9.980469 63.601562 4.332031 63.664062 C 4.003906 63.691406 3.757812 63.964844 3.757812 64.292969 C 3.757812 64.621094 4.003906 64.894531 4.332031 64.921875 C 20.375 64.761719 113.035156 64.03125 143.339844 63.949219 C 156.621094 63.914062 169.910156 64.011719 183.175781 63.90625 C 183.390625 63.84375 183.539062 63.644531 183.539062 63.421875 C 183.539062 63.199219 183.390625 63.003906 183.175781 62.941406 Z M 183.175781 62.941406 "/>
<path style=" stroke:none;fill-rule:nonzero;fill:rgb(11.764706%,11.764706%,11.764706%);fill-opacity:1;" d="M 185.328125 106.851562 C 185.363281 104.160156 185.167969 23.613281 185.164062 20.449219 C 185.164062 17.042969 186.242188 11.664062 181.722656 11.007812 C 176.359375 10.230469 170.695312 10.507812 165.273438 10.507812 C 156.640625 10.507812 14.875 10.507812 13.144531 10.550781 C 9.917969 10.601562 4.8125 10.113281 4.015625 14.269531 C 4.007812 14.3125 4.007812 14.355469 4.015625 14.394531 C 3.464844 20.5 3.90625 26.851562 3.875 32.96875 C 3.816406 45.4375 3.585938 105.632812 3.589844 107.535156 C 3.589844 109.773438 3.253906 112.613281 4.261719 114.6875 C 4.761719 115.691406 5.394531 115.957031 6.453125 116.21875 C 9.058594 116.816406 11.722656 117.117188 14.394531 117.113281 C 28.492188 117.261719 159.976562 116.875 173.871094 116.539062 C 177.160156 116.460938 183.785156 117.5 184.925781 113.261719 C 185.457031 111.304688 185.296875 108.925781 185.328125 106.851562 Z M 184.199219 107.355469 C 184.09375 110.867188 184.230469 114.847656 179.742188 115.234375 C 176.894531 115.476562 168.359375 115.476562 166.984375 115.480469 L 15.757812 115.984375 C 12.976562 116.015625 10.195312 115.777344 7.460938 115.273438 C 4.675781 114.773438 4.746094 112.382812 4.691406 109.988281 L 4.691406 107.027344 C 4.652344 99.824219 4.628906 41.320312 4.691406 19.269531 C 4.691406 17.695312 4.597656 16.0625 4.726562 14.492188 L 4.726562 14.464844 C 5.660156 9.949219 14.5 11.453125 17.90625 11.480469 L 171.230469 11.546875 C 174.191406 11.546875 181.699219 11.90625 182.316406 12.148438 C 184.273438 12.925781 184.21875 15.375 184.167969 17.125 C 184.167969 17.875 184.539062 87.457031 184.199219 106.914062 C 184.195312 107.078125 184.203125 107.222656 184.199219 107.363281 Z M 184.199219 107.355469 "/>
<path style=" stroke:none;fill-rule:nonzero;fill:rgb(11.764706%,11.764706%,11.764706%);fill-opacity:1;" d="M 123.980469 12.261719 C 123.429688 23.507812 123.929688 34.890625 123.925781 46.148438 C 123.925781 55.515625 123.578125 113.914062 123.558594 115.320312 C 123.558594 115.675781 123.847656 115.964844 124.199219 115.964844 C 124.554688 115.964844 124.84375 115.675781 124.84375 115.320312 C 125.152344 94.039062 125.695312 24.75 124.957031 12.261719 C 124.90625 12.035156 124.703125 11.871094 124.46875 11.871094 C 124.234375 11.871094 124.03125 12.035156 123.980469 12.261719 Z M 123.980469 12.261719 "/>
</g>
</svg>
