<?xml version="1.0" encoding="UTF-8"?>
<svg xmlns="http://www.w3.org/2000/svg" xmlns:xlink="http://www.w3.org/1999/xlink" width="188pt" height="128pt" viewBox="0 0 188 128" version="1.1">
<g id="surface1">
<path style=" stroke:none;fill-rule:nonzero;fill:rgb(78.823529%,78.823529%,78.823529%);fill-opacity:1;" d="M 185.171875 18.863281 C 185.234375 16.5 194.25 7.769531 134.609375 12.492188 C 103.710938 7.253906 41.964844 15.953125 23.0625 11.882812 C 17.640625 9.226562 -0.976562 9.328125 2.8125 26.4375 C 0.707031 41.277344 3.785156 53.488281 2.933594 86.046875 C 6.945312 102.582031 -0.976562 105.046875 3.933594 115.5625 C 13.828125 116.5 23.347656 114.820312 33.242188 115.652344 C 43.140625 116.484375 115.496094 120.632812 155.875 116.042969 C 185.753906 121.152344 181.664062 115.269531 184.953125 107.960938 C 188 86.335938 181.152344 84.785156 185.171875 18.863281 Z M 185.171875 18.863281 "/>
<path style=" stroke:none;fill-rule:nonzero;fill:rgb(100%,85.882353%,0%);fill-opacity:1;" d="M 125.074219 106.511719 C 126.824219 102.203125 124.792969 21.613281 124.832031 21.34375 C 126.507812 19.335938 126.671875 9.550781 123.554688 10.492188 C 114.84375 13.109375 9.304688 10.238281 7.835938 11.183594 C 5.234375 12.855469 0.570312 17.148438 3.507812 23.371094 C 1.082031 27.386719 2.152344 32.320312 3.289062 36.925781 C 3.925781 39.519531 1.738281 79.273438 3.289062 89.054688 C 7.09375 103.480469 -5.46875 116.207031 9.566406 117.664062 C 46.890625 116.445312 90.820312 120.128906 91.652344 116.746094 C 97.167969 118.785156 114.039062 116.628906 119.824219 117.878906 C 125.363281 119.09375 125.617188 109.207031 125.074219 106.511719 Z M 125.074219 106.511719 "/>
<path style=" stroke:none;fill-rule:nonzero;fill:rgb(11.764706%,11.764706%,11.764706%);fill-opacity:1;" d="M 63.976562 11.042969 C 63.199219 22.34375 63.394531 64.25 63.410156 73.789062 C 63.410156 85.984375 63.792969 114.8125 63.824219 116.324219 C 63.824219 116.679688 64.113281 116.96875 64.464844 116.96875 C 64.820312 116.96875 65.109375 116.679688 65.109375 116.324219 C 64.605469 93.902344 65.453125 23.664062 64.953125 11.0625 C 64.953125 10.785156 64.726562 10.5625 64.453125 10.5625 C 64.175781 10.5625 63.949219 10.785156 63.949219 11.0625 Z M 63.976562 11.042969 "/>
<path style=" stroke:none;fill-rule:nonzero;fill:rgb(11.764706%,11.764706%,11.764706%);fill-opacity:1;" d="M 183.175781 62.960938 C 156.554688 62.199219 9.980469 63.625 4.332031 63.683594 C 4.003906 63.714844 3.757812 63.984375 3.757812 64.3125 C 3.757812 64.640625 4.003906 64.914062 4.332031 64.945312 C 20.375 64.78125 113.035156 64.050781 143.339844 63.96875 C 156.621094 63.933594 169.910156 64.035156 183.175781 63.925781 C 183.390625 63.863281 183.539062 63.664062 183.539062 63.441406 C 183.539062 63.21875 183.390625 63.023438 183.175781 62.960938 Z M 183.175781 62.960938 "/>
<path style=" stroke:none;fill-rule:nonzero;fill:rgb(11.764706%,11.764706%,11.764706%);fill-opacity:1;" d="M 185.328125 106.871094 C 185.363281 104.183594 185.167969 23.632812 185.164062 20.46875 C 185.164062 17.066406 186.242188 11.691406 181.722656 11.03125 C 176.359375 10.25 170.695312 10.53125 165.273438 10.53125 C 156.640625 10.53125 14.875 10.53125 13.144531 10.578125 C 9.917969 10.625 4.8125 10.140625 4.015625 14.296875 C 4.007812 14.339844 4.007812 14.382812 4.015625 14.425781 C 3.464844 20.523438 3.90625 26.875 3.875 33 C 3.816406 45.472656 3.585938 105.664062 3.589844 107.566406 C 3.589844 109.804688 3.253906 112.644531 4.261719 114.722656 C 4.761719 115.726562 5.394531 115.988281 6.453125 116.230469 C 9.058594 116.828125 11.722656 117.125 14.394531 117.121094 C 28.492188 117.277344 159.976562 116.890625 173.871094 116.550781 C 177.160156 116.46875 183.785156 117.507812 184.925781 113.273438 C 185.457031 111.324219 185.296875 108.925781 185.328125 106.871094 Z M 184.199219 107.375 C 184.09375 110.886719 184.230469 114.867188 179.742188 115.253906 C 176.894531 115.5 168.359375 115.496094 166.984375 115.5 L 15.757812 116.003906 C 12.976562 116.035156 10.195312 115.796875 7.460938 115.296875 C 4.675781 114.792969 4.746094 112.402344 4.691406 110.007812 L 4.691406 107.046875 C 4.652344 99.84375 4.628906 41.339844 4.691406 19.289062 C 4.691406 17.714844 4.597656 16.085938 4.726562 14.511719 L 4.726562 14.488281 C 5.660156 9.96875 14.5 11.476562 17.90625 11.5 L 171.226562 11.574219 C 174.1875 11.574219 181.691406 11.9375 182.308594 12.175781 C 184.269531 12.957031 184.214844 15.40625 184.164062 17.15625 C 184.164062 17.90625 184.535156 87.492188 184.195312 106.941406 C 184.195312 107.097656 184.203125 107.242188 184.199219 107.382812 Z M 184.199219 107.375 "/>
<path style=" stroke:none;fill-rule:nonzero;fill:rgb(11.764706%,11.764706%,11.764706%);fill-opacity:1;" d="M 123.980469 12.28125 C 123.429688 23.527344 123.929688 34.910156 123.925781 46.171875 C 123.925781 55.535156 123.578125 113.933594 123.558594 115.339844 C 123.558594 115.695312 123.847656 115.984375 124.199219 115.984375 C 124.554688 115.984375 124.84375 115.695312 124.84375 115.339844 C 125.152344 94.058594 125.695312 24.773438 124.957031 12.28125 C 124.90625 12.054688 124.703125 11.890625 124.46875 11.890625 C 124.234375 11.890625 124.03125 12.054688 123.980469 12.28125 Z M 123.980469 12.28125 "/>
</g>
</svg>
